# xmcd
#
# Track frame offsets: 
#        150
#        2062
#        21900
#        52212
#        53000
#        70062
#        74062
#        95875
#        117200
#        133612
#        156825
#        180912
#        185562
#        208137
#        227175
#        248775
#        277137
#        301337
#
# Disc length: 4336 seconds
#
# Revision: 14
# Processed by: cddbd v1.5.2PL0 Copyright (c) Steve Scherf et al.
# Submitted via: ExactAudioCopy v0.99pb5
#
DISCID=0e10ee12
DTITLE=Eminem - The Marshall Mathers LP
DYEAR=2001
DGENRE=Rap
TTITLE0=Public Service Announcement 2000
TTITLE1=Kill You
TTITLE2=Stan > feat. Dido
TTITLE3=Paul (skit)
TTITLE4=Who Knew
TTITLE5=Steve Berman
TTITLE6=The Way I Am
TTITLE7=The Real Slim Shady
TTITLE8=Remember Me? > feat. RBX and Sticky Fingaz
TTITLE9=I'm Back
TTITLE10=Marshall Mathers
TTITLE11=Ken Kaniff (skit)
TTITLE12=Drug Ballad
TTITLE13=Amityville > feat. Bizarre from D-12
TTITLE14=Bitch Please II > feat. Dr.Dre, Snoop Dogg, Xzibit and Nate D
TTITLE14=ogg
TTITLE15=Kim
TTITLE16=Under The Influence > feat. D-12
TTITLE17=Criminal
EXTD=YEAR: 2001
EXTT0=
EXTT1=
EXTT2=
EXTT3=
EXTT4=
EXTT5=
EXTT6=
EXTT7=
EXTT8=
EXTT9=
EXTT10=
EXTT11=
EXTT12=
EXTT13=
EXTT14=
EXTT15=
EXTT16=
EXTT17=
PLAYORDER=
